<svg xmlns="http://www.w3.org/2000/svg" width="40" height="40" viewBox="10 140 925 700">
<g>
<path d="M 310.50 677.75 C299.31,679.46 263.93,680.25 254.50,679.00 C234.22,676.30 230.29,675.47 214.21,670.53 C206.26,668.08 190.42,660.51 182.18,655.21 C173.46,649.60 157.56,634.88 151.17,626.50 C148.65,623.20 146.20,620.22 145.71,619.89 C145.23,619.55 144.86,618.88 144.89,618.39 C144.93,617.90 143.21,614.80 141.09,611.50 C135.32,602.56 130.57,590.16 127.32,575.54 C125.39,566.89 125.34,566.56 123.86,550.41 C122.96,540.60 122.93,534.71 123.76,526.91 C126.02,505.48 126.67,501.26 128.78,494.00 C129.65,490.98 130.47,487.95 130.59,487.28 C131.10,484.45 135.32,471.42 136.03,470.50 C136.45,469.95 138.02,465.90 139.52,461.50 C141.02,457.10 142.70,452.93 143.25,452.24 C144.74,450.39 147.59,445.16 150.08,439.75 C151.28,437.14 152.66,435.00 153.13,435.00 C153.61,435.00 154.00,434.33 154.00,433.50 C154.00,432.67 154.34,432.00 154.76,432.00 C155.17,432.00 156.07,430.76 156.76,429.25 C157.44,427.74 159.41,424.92 161.13,423.00 C162.85,421.08 165.94,417.23 168.00,414.46 C172.40,408.55 190.20,390.39 194.43,387.50 C196.04,386.40 198.42,384.49 199.72,383.25 C201.03,382.01 202.34,381.00 202.65,381.00 C202.96,381.00 204.63,379.87 206.36,378.48 C208.09,377.10 209.98,375.58 210.58,375.11 C211.17,374.63 212.63,373.93 213.83,373.55 C215.02,373.18 216.00,372.43 216.00,371.90 C216.00,371.37 216.79,370.66 217.75,370.33 C221.17,369.15 232.51,363.69 233.00,362.99 C235.68,359.18 269.28,349.06 292.56,345.05 C299.94,343.77 340.22,343.65 341.55,344.89 C342.07,345.38 345.20,346.02 348.50,346.31 C356.39,347.00 359.90,347.62 363.32,348.93 C364.86,349.52 367.23,350.00 368.57,350.00 C369.90,350.00 371.00,350.48 371.00,351.06 C371.00,351.64 371.46,351.84 372.01,351.49 C372.57,351.15 374.37,351.53 376.00,352.35 C377.64,353.17 380.45,354.12 382.24,354.48 C386.02,355.22 389.93,356.96 391.82,358.75 C392.55,359.44 393.80,360.00 394.60,360.00 C396.47,360.00 408.39,365.97 408.83,367.12 C409.02,367.61 409.77,368.00 410.50,368.00 C411.23,368.00 411.98,368.35 412.17,368.77 C412.35,369.19 413.69,370.46 415.15,371.59 L 417.81 373.64 L 413.69 377.07 C400.47,388.08 383.44,407.81 375.64,421.16 C372.22,427.01 370.56,427.66 366.62,424.70 C357.35,417.76 346.28,413.24 330.64,410.03 C316.75,407.17 303.70,407.61 286.50,411.51 C276.34,413.81 260.62,420.75 253.50,426.08 C251.30,427.72 248.79,429.39 247.91,429.78 C241.96,432.46 223.66,452.17 218.44,461.51 C216.95,464.19 215.34,466.86 214.87,467.44 C212.67,470.18 205.68,484.97 204.01,490.41 C197.78,510.74 196.00,520.20 196.00,532.91 C196.00,540.67 198.22,554.63 200.40,560.53 C204.91,572.76 206.19,575.59 209.58,580.79 C216.70,591.72 225.18,598.77 239.44,605.61 C253.80,612.51 264.83,615.00 281.00,614.99 C293.43,614.99 309.96,613.16 316.00,611.12 C317.38,610.66 320.30,609.74 322.50,609.07 C327.61,607.53 330.44,606.38 335.90,603.62 C339.68,601.71 340.50,600.71 341.79,596.45 C342.61,593.73 344.35,588.23 345.64,584.23 C346.94,580.23 348.00,576.11 348.00,575.07 C348.00,574.03 349.31,569.19 350.90,564.31 C352.50,559.42 353.96,554.10 354.15,552.47 L 354.50 549.50 L 318.15 549.24 C284.08,548.99 281.84,548.87 282.51,547.24 C282.91,546.28 283.64,543.70 284.14,541.50 C284.64,539.30 285.43,536.38 285.91,535.00 C286.84,532.28 289.18,524.13 291.07,517.00 C291.73,514.53 292.65,511.15 293.12,509.50 C293.59,507.85 295.01,502.67 296.27,498.00 L 298.57 489.50 L 370.15 489.24 L 441.74 488.99 L 440.89 493.56 C440.42,496.08 439.79,498.53 439.49,499.02 C439.19,499.50 437.40,505.89 435.52,513.20 C432.40,525.32 431.18,529.96 426.26,548.50 C425.38,551.80 424.29,554.93 423.83,555.45 C423.37,555.97 422.99,557.77 422.97,559.45 C422.95,561.13 422.06,564.97 421.00,568.00 C419.94,571.03 419.05,574.50 419.03,575.72 C419.01,576.94 417.85,581.44 416.44,585.72 C415.04,590.00 412.32,599.35 410.41,606.50 C408.50,613.65 406.30,621.08 405.53,623.00 C404.76,624.92 403.84,628.75 403.49,631.50 C402.55,638.75 400.07,642.19 393.44,645.42 C391.76,646.24 388.67,648.28 386.56,649.95 C384.45,651.63 382.37,653.00 381.93,653.00 C381.50,653.00 378.52,654.56 375.32,656.46 C367.78,660.94 355.67,665.78 339.48,670.78 C323.66,675.67 322.98,675.83 310.50,677.75 ZM 543.50 679.02 C531.09,680.11 498.59,680.09 486.50,678.98 C464.95,677.01 446.90,672.13 430.00,663.70 C421.78,659.59 419.52,658.03 419.61,656.48 C419.82,652.68 421.14,645.75 421.96,644.13 C422.70,642.69 427.13,625.78 428.55,619.00 C428.83,617.62 430.04,613.58 431.23,610.00 C432.42,606.42 433.50,602.88 433.63,602.13 C434.14,599.07 436.19,590.40 436.73,589.00 C437.05,588.17 437.49,586.38 437.72,585.00 C438.49,580.27 439.98,580.26 443.84,584.99 C449.60,592.05 457.12,598.85 461.75,601.20 C464.09,602.39 466.00,603.69 466.00,604.10 C466.00,604.51 468.25,605.59 471.00,606.50 C473.75,607.41 476.00,608.60 476.00,609.14 C476.00,609.68 476.37,609.89 476.82,609.61 C477.27,609.33 478.89,609.75 480.40,610.54 C483.91,612.35 490.09,614.03 494.83,614.44 C512.82,616.00 517.68,616.11 527.00,615.14 C540.91,613.68 555.01,609.20 568.00,602.10 C569.83,601.10 571.63,595.95 576.05,579.00 C576.70,576.53 577.59,573.60 578.04,572.50 C578.72,570.80 579.47,568.11 580.55,563.50 C580.67,562.95 581.48,559.83 582.34,556.57 C583.20,553.32 583.69,550.30 583.42,549.88 C583.16,549.45 567.35,549.09 548.29,549.07 C528.25,549.05 513.24,548.64 512.70,548.10 C512.13,547.53 512.73,543.99 514.29,538.83 C515.68,534.25 517.04,529.38 517.33,528.00 C518.10,524.20 523.97,502.71 524.69,501.00 C525.60,498.86 525.57,498.97 526.44,493.75 L 527.23 489.00 L 672.13 489.00 L 671.45 491.15 C671.08,492.34 669.51,498.39 667.98,504.60 C666.44,510.81 664.92,516.32 664.60,516.83 C664.29,517.34 662.72,522.88 661.12,529.13 C658.17,540.64 652.76,560.42 647.08,580.50 C645.36,586.55 643.52,593.08 642.98,595.00 C642.44,596.92 640.85,602.55 639.45,607.50 C638.06,612.45 636.30,619.20 635.54,622.50 C634.78,625.80 633.29,631.53 632.21,635.24 C629.89,643.26 630.30,643.91 638.18,644.60 C641.11,644.85 660.15,646.59 680.50,648.46 C700.85,650.33 720.88,652.11 725.00,652.43 C729.12,652.75 733.85,653.24 735.50,653.53 C739.87,654.29 758.91,656.06 763.00,656.08 C764.92,656.10 765.92,656.35 765.21,656.65 C764.22,657.07 764.19,657.52 765.08,658.60 C765.98,659.68 765.95,660.00 764.96,660.00 C764.25,660.00 764.01,660.34 764.42,660.75 C765.53,661.86 742.52,664.10 695.00,667.50 C683.72,668.31 668.20,669.42 660.50,669.97 C652.80,670.53 644.81,671.21 642.75,671.50 C640.68,671.79 632.81,672.45 625.25,672.97 C596.35,674.96 554.05,678.09 543.50,679.02 ZM 453.66 465.11 L 451.82 468.00 L 413.57 468.00 C392.54,468.00 375.03,467.70 374.66,467.33 C374.30,466.96 374.63,465.95 375.41,465.08 C376.18,464.21 376.97,462.60 377.16,461.50 C377.35,460.40 377.73,459.27 378.02,459.00 C378.30,458.73 380.02,455.58 381.83,452.00 C387.59,440.66 390.78,434.98 393.25,431.69 C394.57,429.94 395.91,427.83 396.23,427.00 C396.75,425.65 407.94,412.23 414.99,404.50 C422.02,396.79 435.07,385.03 440.50,381.52 C443.80,379.39 448.07,376.37 449.98,374.82 C451.89,373.27 453.85,372.00 454.32,372.00 C454.80,372.00 456.39,371.16 457.85,370.14 C463.88,365.90 477.12,359.47 487.47,355.77 C503.97,349.86 516.63,346.66 529.61,345.10 C541.16,343.71 569.32,343.66 587.50,345.01 C595.20,345.58 619.50,346.94 641.50,348.04 C663.50,349.14 693.20,350.69 707.50,351.49 C721.80,352.29 742.50,353.40 753.50,353.98 C790.06,355.88 827.35,358.08 840.00,359.09 C846.88,359.64 856.21,360.04 860.75,359.97 C865.78,359.91 869.00,360.26 869.00,360.89 C869.00,362.25 863.02,363.31 858.02,362.83 C855.81,362.62 854.00,362.80 854.00,363.22 C854.00,363.65 850.96,364.01 847.25,364.02 C843.54,364.03 833.08,364.70 824.00,365.51 C814.92,366.31 801.65,367.44 794.50,368.01 C787.35,368.58 776.78,369.48 771.00,370.01 C765.22,370.55 754.20,371.43 746.50,371.98 C738.80,372.52 723.95,373.67 713.50,374.53 C693.61,376.17 691.75,376.30 672.75,377.52 C665.21,378.00 661.01,378.67 661.02,379.39 C661.03,380.00 665.08,384.50 670.02,389.39 C674.96,394.28 679.00,398.83 679.00,399.50 C679.00,400.18 676.86,402.73 674.25,405.18 C671.64,407.63 668.24,411.29 666.70,413.32 L 663.89 417.01 L 666.20 417.86 C667.46,418.33 672.55,419.04 677.50,419.45 C694.69,420.87 707.55,421.85 716.50,422.44 C721.45,422.76 727.53,423.30 730.00,423.63 C732.47,423.96 736.30,424.38 738.50,424.56 C740.70,424.74 745.42,425.13 749.00,425.44 C752.58,425.75 756.17,426.04 757.00,426.08 C757.83,426.12 768.62,427.02 781.00,428.07 C793.38,429.13 807.69,430.33 812.81,430.75 L 822.13 431.50 L 820.03 433.75 C818.87,434.99 818.28,436.06 818.71,436.14 C819.14,436.21 812.53,436.84 804.00,437.53 C795.47,438.23 783.33,439.28 777.00,439.87 C770.67,440.46 752.45,441.86 736.50,442.98 C700.21,445.53 660.96,448.75 650.59,450.03 C634.26,452.04 625.00,451.05 625.00,447.29 C625.00,446.83 620.34,441.96 614.64,436.47 C603.80,426.04 601.48,424.00 600.48,424.00 C600.14,424.00 598.43,422.91 596.68,421.57 C591.88,417.91 581.25,413.44 571.87,411.13 C544.96,404.51 519.84,408.96 493.50,425.01 C490.20,427.02 487.01,428.86 486.41,429.08 C485.00,429.62 473.72,439.44 469.27,444.00 C466.17,447.18 458.33,457.78 453.66,465.11 ZM 715.50 524.53 C704.50,525.33 693.23,526.24 690.46,526.54 C687.69,526.84 685.11,526.78 684.73,526.40 C683.92,525.59 684.35,523.57 687.75,512.00 C689.12,507.33 690.93,500.63 691.76,497.13 L 693.27 490.75 L 698.38 491.45 C701.20,491.84 704.17,492.16 705.00,492.16 C707.10,492.18 763.28,496.81 782.00,498.51 C790.53,499.28 801.55,500.16 806.50,500.47 C811.45,500.77 820.45,501.47 826.50,502.02 C866.71,505.67 882.45,507.01 886.21,507.12 C888.57,507.18 889.65,507.45 888.60,507.72 C887.08,508.11 886.98,508.38 888.10,509.09 C889.10,509.72 888.66,509.97 886.58,509.98 C884.98,509.99 884.01,510.34 884.42,510.75 C884.83,511.16 878.27,512.03 869.84,512.67 C861.40,513.31 838.97,514.99 820.00,516.41 C801.03,517.83 781.22,519.42 776.00,519.96 C770.78,520.49 759.53,521.41 751.00,522.00 C742.47,522.58 726.50,523.72 715.50,524.53 ZM 685.25 598.00 C674.11,599.10 664.55,600.00 664.00,600.00 C662.64,600.00 662.74,598.99 664.58,593.88 C666.34,588.99 666.41,588.73 668.35,580.93 C669.11,577.87 670.25,574.40 670.89,573.21 C672.26,570.64 673.47,570.61 694.00,572.64 C701.97,573.43 710.97,574.31 714.00,574.60 C717.03,574.89 735.25,576.70 754.50,578.62 C773.75,580.55 792.81,582.39 796.85,582.71 C802.02,583.13 803.73,583.57 802.58,584.21 C801.69,584.71 801.18,585.49 801.46,585.93 C801.73,586.38 798.26,587.05 793.73,587.43 C784.88,588.16 744.95,592.01 720.50,594.48 C712.25,595.31 696.39,596.89 685.25,598.00 ZM 837.11 435.48 C832.42,436.51 824.33,435.82 824.33,434.40 C824.33,432.55 828.54,431.80 834.64,432.56 C840.55,433.30 841.57,434.50 837.11,435.48 ZM 776.29 659.00 C776.73,660.70 776.32,661.00 773.57,661.00 C770.05,661.00 769.00,660.39 769.00,658.33 C769.00,657.48 770.23,657.00 772.38,657.00 C774.93,657.00 775.90,657.50 776.29,659.00 Z" fill="rgb(17,63,121)"/>
<path d="M 776.29 659.00 C776.10,658.26 775.77,657.77 775.18,657.45 C776.62,657.65 777.92,657.85 778.93,658.03 C781.92,658.56 786.61,659.00 789.35,659.00 C800.39,659.00 792.09,660.04 769.44,661.50 C764.28,661.84 759.39,662.18 755.30,662.50 C761.81,661.75 764.84,661.17 764.42,660.75 C764.01,660.34 764.25,660.00 764.96,660.00 C765.95,660.00 765.98,659.68 765.08,658.60 C764.19,657.52 764.22,657.07 765.21,656.65 C765.41,656.57 765.47,656.49 765.42,656.42 C765.78,656.44 766.14,656.47 766.50,656.50 C768.04,656.62 769.87,656.81 771.69,657.02 C769.97,657.11 769.00,657.58 769.00,658.33 C769.00,660.39 770.05,661.00 773.57,661.00 C776.32,661.00 776.73,660.70 776.29,659.00 ZM 888.89 507.41 C894.85,507.94 899.75,508.42 901.50,508.64 C910.29,509.74 903.64,510.79 880.35,511.98 C878.20,512.09 876.10,512.20 874.09,512.31 C880.37,511.74 884.76,511.09 884.42,510.75 C884.01,510.34 884.98,509.99 886.58,509.98 C888.66,509.97 889.10,509.72 888.10,509.09 C886.98,508.38 887.08,508.11 888.60,507.72 C889.02,507.61 889.10,507.50 888.89,507.41 ZM 822.06 431.57 C824.80,431.80 827.40,432.04 829.72,432.27 C826.39,432.35 824.33,433.10 824.33,434.40 C824.33,435.24 827.15,435.82 830.43,435.95 C824.62,436.47 815.63,437.09 802.00,437.98 C792.92,438.58 781.22,439.47 776.00,439.97 C772.16,440.33 761.69,441.15 749.97,442.01 C761.63,441.14 772.43,440.29 777.00,439.87 C783.33,439.28 795.47,438.23 804.00,437.53 C812.53,436.84 819.14,436.21 818.71,436.14 C818.28,436.06 818.87,434.99 820.03,433.75 ZM 801.23 583.20 L 801.50 583.23 C812.37,584.25 813.22,584.46 810.50,585.54 C808.85,586.20 802.55,587.02 796.50,587.38 C792.85,587.59 787.76,587.99 780.55,588.63 C786.62,588.06 791.32,587.63 793.73,587.43 C798.26,587.05 801.73,586.38 801.46,585.93 C801.18,585.49 801.69,584.71 802.58,584.21 C803.30,583.81 802.90,583.49 801.23,583.20 ZM 854.24 513.84 C848.68,514.37 835.44,515.41 820.50,516.48 C801.25,517.86 781.22,519.42 776.00,519.96 C781.22,519.42 801.03,517.83 820.00,516.41 C831.43,515.56 844.12,514.61 854.24,513.84 ZM 884.99 507.06 C879.98,506.79 865.52,505.55 833.89,502.69 C837.19,502.96 840.30,503.22 843.00,503.46 C852.08,504.26 867.83,505.61 878.00,506.46 C880.34,506.66 882.70,506.86 884.99,507.06 ZM 743.62 663.67 C741.90,664.00 735.98,664.57 729.54,665.03 C704.51,666.82 674.39,668.98 660.50,669.97 C668.20,669.42 683.72,668.31 695.00,667.50 C715.97,666.00 732.16,664.72 743.62,663.67 ZM 758.85 655.87 C751.71,655.37 738.97,654.13 735.50,653.53 C737.90,653.94 747.79,654.93 758.85,655.87 ZM 838.24 433.22 C839.22,433.35 839.79,433.46 839.86,433.52 C840.27,433.94 840.32,434.28 839.61,434.59 C840.23,434.12 839.75,433.64 838.24,433.22 ZM 754.50 578.62 C735.25,576.70 717.03,574.89 714.00,574.60 C717.03,574.89 735.25,576.69 754.50,578.61 C762.88,579.45 771.62,580.31 779.37,581.07 C772.06,580.37 763.30,579.50 754.50,578.62 ZM 781.00 428.07 C768.62,427.02 757.83,426.12 757.00,426.08 C758.14,426.13 772.07,427.30 799.65,429.65 C793.88,429.17 787.20,428.60 781.00,428.07 ZM 736.19 494.61 C719.99,493.28 706.03,492.17 705.00,492.16 C706.20,492.17 720.16,493.28 736.19,494.61 Z" fill="rgb(15,59,114)"/>
<path d="M 801.23 583.20 C800.93,583.15 800.60,583.10 800.22,583.05 C801.49,583.17 802.60,583.26 803.50,583.34 C811.20,584.00 817.02,584.85 816.43,585.22 C815.94,585.53 810.75,586.14 804.21,586.69 C807.19,586.33 809.58,585.91 810.50,585.54 C813.22,584.46 812.37,584.25 801.50,583.23 ZM 788.97 587.91 C783.41,588.39 776.81,588.99 769.27,589.70 C773.35,589.31 777.16,588.95 780.55,588.63 L 780.55 588.63 C783.76,588.34 786.55,588.11 788.97,587.91 Z" fill="rgb(85,116,155)"/>
<path d="M 0.00 512.00 L 0.00 0.00 L 512.00 0.00 L 1024.00 0.00 L 1024.00 512.00 L 1024.00 1024.00 L 512.00 1024.00 L 0.00 1024.00 L 0.00 512.00 ZM 310.50 677.75 C322.98,675.83 323.66,675.67 339.48,670.78 C355.67,665.78 367.78,660.94 375.32,656.46 C378.52,654.56 381.50,653.00 381.93,653.00 C382.37,653.00 384.45,651.63 386.56,649.95 C388.67,648.28 391.76,646.24 393.44,645.42 C400.07,642.19 402.55,638.75 403.49,631.50 C403.84,628.75 404.76,624.92 405.53,623.00 C406.30,621.08 408.50,613.65 410.41,606.50 C412.32,599.35 415.04,590.00 416.44,585.72 C417.85,581.44 419.01,576.94 419.03,575.72 C419.05,574.50 419.94,571.03 421.00,568.00 C422.06,564.97 422.95,561.13 422.97,559.45 C422.99,557.77 423.37,555.97 423.83,555.45 C424.29,554.93 425.38,551.80 426.26,548.50 C431.18,529.96 432.40,525.32 435.52,513.20 C437.40,505.89 439.19,499.50 439.49,499.02 C439.79,498.53 440.42,496.08 440.89,493.56 L 441.74 488.99 L 370.15 489.24 L 298.57 489.50 L 296.27 498.00 C295.01,502.67 293.59,507.85 293.12,509.50 C292.65,511.15 291.73,514.53 291.07,517.00 C289.18,524.13 286.84,532.28 285.91,535.00 C285.43,536.38 284.64,539.30 284.14,541.50 C283.64,543.70 282.91,546.28 282.51,547.24 C281.84,548.87 284.08,548.99 318.15,549.24 L 354.50 549.50 L 354.15 552.47 C353.96,554.10 352.50,559.42 350.90,564.31 C349.31,569.19 348.00,574.03 348.00,575.07 C348.00,576.11 346.94,580.23 345.64,584.23 C344.35,588.23 342.61,593.73 341.79,596.45 C340.50,600.71 339.68,601.71 335.90,603.62 C330.44,606.38 327.61,607.53 322.50,609.07 C320.30,609.74 317.38,610.66 316.00,611.12 C309.96,613.16 293.43,614.99 281.00,614.99 C264.83,615.00 253.80,612.51 239.44,605.61 C225.18,598.77 216.70,591.72 209.58,580.79 C206.19,575.59 204.91,572.76 200.40,560.53 C198.22,554.63 196.00,540.67 196.00,532.91 C196.00,520.20 197.78,510.74 204.01,490.41 C205.68,484.97 212.67,470.18 214.87,467.44 C215.34,466.86 216.95,464.19 218.44,461.51 C223.66,452.17 241.96,432.46 247.91,429.78 C248.79,429.39 251.30,427.72 253.50,426.08 C260.62,420.75 276.34,413.81 286.50,411.51 C303.70,407.61 316.75,407.17 330.64,410.03 C346.28,413.24 357.35,417.76 366.62,424.70 C370.56,427.66 372.22,427.01 375.64,421.16 C383.44,407.81 400.47,388.08 413.69,377.07 L 417.81 373.64 L 415.15 371.59 C413.69,370.46 412.35,369.19 412.17,368.77 C411.98,368.35 411.23,368.00 410.50,368.00 C409.77,368.00 409.02,367.61 408.83,367.12 C408.39,365.97 396.47,360.00 394.60,360.00 C393.80,360.00 392.55,359.44 391.82,358.75 C389.93,356.96 386.02,355.22 382.24,354.48 C380.45,354.12 377.64,353.17 376.00,352.35 C374.37,351.53 372.57,351.15 372.01,351.49 C371.46,351.84 371.00,351.64 371.00,351.06 C371.00,350.48 369.90,350.00 368.57,350.00 C367.23,350.00 364.86,349.52 363.32,348.93 C359.90,347.62 356.39,347.00 348.50,346.31 C345.20,346.02 342.07,345.38 341.55,344.89 C340.22,343.65 299.94,343.77 292.56,345.05 C269.28,349.06 235.68,359.18 233.00,362.99 C232.51,363.69 221.17,369.15 217.75,370.33 C216.79,370.66 216.00,371.37 216.00,371.90 C216.00,372.43 215.02,373.18 213.83,373.55 C212.63,373.93 211.17,374.63 210.58,375.11 C209.98,375.58 208.09,377.10 206.36,378.48 C204.63,379.87 202.96,381.00 202.65,381.00 C202.34,381.00 201.03,382.01 199.72,383.25 C198.42,384.49 196.04,386.40 194.43,387.50 C190.20,390.39 172.40,408.55 168.00,414.46 C165.94,417.23 162.85,421.08 161.13,423.00 C159.41,424.92 157.44,427.74 156.76,429.25 C156.07,430.76 155.17,432.00 154.76,432.00 C154.34,432.00 154.00,432.67 154.00,433.50 C154.00,434.33 153.61,435.00 153.13,435.00 C152.66,435.00 151.28,437.14 150.08,439.75 C147.59,445.16 144.74,450.39 143.25,452.24 C142.70,452.93 141.02,457.10 139.52,461.50 C138.02,465.90 136.45,469.95 136.03,470.50 C135.32,471.42 131.10,484.45 130.59,487.28 C130.47,487.95 129.65,490.98 128.78,494.00 C126.67,501.26 126.02,505.48 123.76,526.91 C122.93,534.71 122.96,540.60 123.86,550.41 C125.34,566.56 125.39,566.89 127.32,575.54 C130.57,590.16 135.32,602.56 141.09,611.50 C143.21,614.80 144.93,617.90 144.89,618.39 C144.86,618.88 145.23,619.55 145.71,619.89 C146.20,620.22 148.65,623.20 151.17,626.50 C157.56,634.88 173.46,649.60 182.18,655.21 C190.42,660.51 206.26,668.08 214.21,670.53 C230.29,675.47 234.22,676.30 254.50,679.00 C263.93,680.25 299.31,679.46 310.50,677.75 ZM 543.50 679.02 C554.05,678.09 596.35,674.96 625.25,672.97 C632.81,672.45 640.68,671.79 642.75,671.50 C644.81,671.21 652.80,670.53 660.50,669.97 C674.39,668.98 704.51,666.82 729.54,665.03 C736.71,664.52 743.23,663.86 744.04,663.57 C744.84,663.29 756.27,662.35 769.44,661.50 C792.09,660.04 800.39,659.00 789.35,659.00 C786.61,659.00 781.92,658.56 778.93,658.03 C775.95,657.49 770.35,656.81 766.50,656.50 C752.67,655.40 738.44,654.04 735.50,653.53 C733.85,653.24 729.12,652.75 725.00,652.43 C720.88,652.11 700.85,650.33 680.50,648.46 C660.15,646.59 641.11,644.85 638.18,644.60 C630.30,643.91 629.89,643.26 632.21,635.24 C633.29,631.53 634.78,625.80 635.54,622.50 C636.30,619.20 638.06,612.45 639.45,607.50 C640.85,602.55 642.44,596.92 642.98,595.00 C643.52,593.08 645.36,586.55 647.08,580.50 C652.76,560.42 658.17,540.64 661.12,529.13 C662.72,522.88 664.29,517.34 664.60,516.83 C664.92,516.32 666.44,510.81 667.98,504.60 C669.51,498.39 671.08,492.34 671.45,491.15 L 672.13 489.00 L 599.68 489.00 L 527.23 489.00 L 526.44 493.75 C525.57,498.97 525.60,498.86 524.69,501.00 C523.97,502.71 518.10,524.20 517.33,528.00 C517.04,529.38 515.68,534.25 514.29,538.83 C512.73,543.99 512.13,547.53 512.70,548.10 C513.24,548.64 528.25,549.05 548.29,549.07 C567.35,549.09 583.16,549.45 583.42,549.88 C583.69,550.30 583.20,553.32 582.34,556.57 C581.48,559.83 580.67,562.95 580.55,563.50 C579.47,568.11 578.72,570.80 578.04,572.50 C577.59,573.60 576.70,576.53 576.05,579.00 C571.63,595.95 569.83,601.10 568.00,602.10 C555.01,609.20 540.91,613.68 527.00,615.14 C517.68,616.11 512.82,616.00 494.83,614.44 C490.09,614.03 483.91,612.35 480.40,610.54 C478.89,609.75 477.27,609.33 476.82,609.61 C476.37,609.89 476.00,609.68 476.00,609.14 C476.00,608.60 473.75,607.41 471.00,606.50 C468.25,605.59 466.00,604.51 466.00,604.10 C466.00,603.69 464.09,602.39 461.75,601.20 C457.12,598.85 449.60,592.05 443.84,584.99 C439.98,580.26 438.49,580.27 437.72,585.00 C437.49,586.38 437.05,588.17 436.73,589.00 C436.19,590.40 434.14,599.07 433.63,602.13 C433.50,602.88 432.42,606.42 431.23,610.00 C430.04,613.58 428.83,617.62 428.55,619.00 C427.13,625.78 422.70,642.69 421.96,644.13 C421.14,645.75 419.82,652.68 419.61,656.48 C419.52,658.03 421.78,659.59 430.00,663.70 C446.90,672.13 464.95,677.01 486.50,678.98 C498.59,680.09 531.09,680.11 543.50,679.02 ZM 685.25 598.00 C696.39,596.89 712.25,595.31 720.50,594.48 C758.71,590.62 786.74,587.99 800.43,586.99 C808.65,586.38 815.85,585.59 816.43,585.22 C817.02,584.85 811.20,584.00 803.50,583.34 C795.80,582.68 773.75,580.56 754.50,578.63 C735.25,576.70 717.03,574.89 714.00,574.60 C710.97,574.31 701.97,573.43 694.00,572.64 C673.47,570.61 672.26,570.64 670.89,573.21 C670.25,574.40 669.11,577.87 668.35,580.93 C666.41,588.73 666.34,588.99 664.58,593.88 C662.74,598.99 662.64,600.00 664.00,600.00 C664.55,600.00 674.11,599.10 685.25,598.00 ZM 715.50 524.53 C726.50,523.72 742.47,522.58 751.00,522.00 C759.53,521.41 770.78,520.49 776.00,519.96 C781.22,519.42 801.25,517.86 820.50,516.48 C839.75,515.10 856.17,513.77 857.00,513.53 C857.83,513.29 868.33,512.59 880.35,511.98 C903.64,510.79 910.29,509.74 901.50,508.64 C898.75,508.29 888.17,507.32 878.00,506.46 C867.83,505.61 852.08,504.26 843.00,503.46 C829.22,502.24 804.68,500.37 799.00,500.10 C798.17,500.06 790.53,499.37 782.00,498.57 C765.44,497.00 707.50,492.18 705.00,492.16 C704.17,492.16 701.20,491.84 698.38,491.45 L 693.27 490.75 L 691.76 497.13 C690.93,500.63 689.12,507.33 687.75,512.00 C684.35,523.57 683.92,525.59 684.73,526.40 C685.11,526.78 687.69,526.84 690.46,526.54 C693.23,526.24 704.50,525.33 715.50,524.53 ZM 453.66 465.11 C458.33,457.78 466.17,447.18 469.27,444.00 C473.72,439.44 485.00,429.62 486.41,429.08 C487.01,428.86 490.20,427.02 493.50,425.01 C519.84,408.96 544.96,404.51 571.87,411.13 C581.25,413.44 591.88,417.91 596.68,421.57 C598.43,422.91 600.14,424.00 600.48,424.00 C601.48,424.00 603.80,426.04 614.64,436.47 C620.34,441.96 625.00,446.83 625.00,447.29 C625.00,451.05 634.26,452.04 650.59,450.03 C661.02,448.74 700.31,445.52 737.00,442.94 C753.22,441.80 770.78,440.46 776.00,439.97 C781.22,439.47 792.92,438.58 802.00,437.98 C837.39,435.66 841.51,435.18 839.86,433.52 C839.60,433.26 831.31,432.36 821.44,431.51 C779.36,427.92 758.40,426.15 757.00,426.08 C756.17,426.04 752.58,425.75 749.00,425.44 C745.42,425.13 740.70,424.74 738.50,424.56 C736.30,424.38 732.47,423.96 730.00,423.63 C727.53,423.30 721.45,422.76 716.50,422.44 C707.55,421.85 694.69,420.87 677.50,419.45 C672.55,419.04 667.46,418.33 666.20,417.86 L 663.89 417.01 L 666.70 413.32 C668.24,411.29 671.64,407.63 674.25,405.18 C676.86,402.73 679.00,400.18 679.00,399.50 C679.00,398.83 674.96,394.28 670.02,389.39 C665.08,384.50 661.03,380.00 661.02,379.39 C661.01,378.67 665.21,378.00 672.75,377.52 C691.75,376.30 693.61,376.17 713.50,374.53 C723.95,373.67 738.80,372.52 746.50,371.98 C754.20,371.43 765.22,370.55 771.00,370.01 C776.78,369.48 787.35,368.58 794.50,368.01 C801.65,367.44 814.92,366.31 824.00,365.51 C833.08,364.70 843.54,364.03 847.25,364.02 C850.96,364.01 854.00,363.65 854.00,363.22 C854.00,362.80 855.81,362.62 858.02,362.83 C863.02,363.31 869.00,362.25 869.00,360.89 C869.00,360.26 865.78,359.91 860.75,359.97 C856.21,360.04 846.88,359.64 840.00,359.09 C827.35,358.08 790.06,355.88 753.50,353.98 C742.50,353.40 721.80,352.29 707.50,351.49 C693.20,350.69 663.50,349.14 641.50,348.04 C619.50,346.94 595.20,345.58 587.50,345.01 C569.32,343.66 541.16,343.71 529.61,345.10 C516.63,346.66 503.97,349.86 487.47,355.77 C477.12,359.47 463.88,365.90 457.85,370.14 C456.39,371.16 454.80,372.00 454.32,372.00 C453.85,372.00 451.89,373.27 449.98,374.82 C448.07,376.37 443.80,379.39 440.50,381.52 C435.07,385.03 422.02,396.79 414.99,404.50 C407.94,412.23 396.75,425.65 396.23,427.00 C395.91,427.83 394.57,429.94 393.25,431.69 C390.78,434.98 387.59,440.66 381.83,452.00 C380.02,455.58 378.30,458.73 378.02,459.00 C377.73,459.27 377.35,460.40 377.16,461.50 C376.97,462.60 376.18,464.21 375.41,465.08 C374.63,465.95 374.30,466.96 374.66,467.33 C375.03,467.70 392.54,468.00 413.57,468.00 L 451.82 468.00 L 453.66 465.11 Z" fill="rgb(254,254,254)"/>
</g>
</svg>